# xmcd
#
# Track frame offsets: 
#        150
#        12097
#        22262
#        37204
#        46686
#        55457
#        66963
#        78864
#        87786
#        97579
#        108877
#        118753
#        128936
#        137260
#        149218
#        158568
#        170881
#        180382
#
# Disc length: 2542 seconds
#
# Revision: 0
# Processed by: cddbd v1.5.2PL0 Copyright (c) Steve Scherf et al.
# Submitted via: ExactAudioCopyFreeDBPlugin 1.0
#
DISCID=ee09ec12
DTITLE=The Everly Brothers - The Hits Collection [CD3)
DYEAR=1900
DGENRE=Rock and Roll
TTITLE0=I Walk The Line
TTITLE1=Donna, Donna
TTITLE2=Bye Bye Blackbird
TTITLE3=True Love
TTITLE4=Slippin' And Slidin'
TTITLE5=Trouble In Mind
TTITLE6=Nashville Blues
TTITLE7=So Fine
TTITLE8=The Girl Can't Help It
TTITLE9=Money (That's What I Want)
TTITLE10=See See Rider
TTITLE11=Oh, Lonesome Me
TTITLE12=Honolulu
TTITLE13=Walking The Dog
TTITLE14=You Thrill Me (Through and Trough)
TTITLE15=Why Not
TTITLE16=The Facts Of Life
TTITLE17=The Party's Over
EXTD=
EXTT0=
EXTT1=
EXTT2=
EXTT3=
EXTT4=
EXTT5=
EXTT6=
EXTT7=
EXTT8=
EXTT9=
EXTT10=
EXTT11=
EXTT12=
EXTT13=
EXTT14=
EXTT15=
EXTT16=
EXTT17=
PLAYORDER=
